<svg width="20" height="20" viewBox="0 0 20 20" fill="none" xmlns="http://www.w3.org/2000/svg">
<g clip-path="url(#clip0_22_1489)">
<path d="M13.859 10.9425C13.8119 10.9908 13.6341 11.1975 13.4685 11.3675C12.4976 12.4367 9.96471 14.1867 8.639 14.7208C8.43767 14.8067 7.92866 14.9883 7.6567 15C7.39611 15 7.14769 14.94 6.91064 14.8183C6.61514 14.6483 6.37809 14.3808 6.24819 14.065C6.16458 13.8458 6.03469 13.19 6.03469 13.1783C5.90479 12.4608 5.83335 11.295 5.83335 10.0067C5.83335 8.77917 5.90479 7.66083 6.01114 6.9325C6.02332 6.92083 6.15321 6.10583 6.29528 5.82667C6.55587 5.31667 7.06489 5 7.60962 5H7.6567C8.01147 5.0125 8.75753 5.32917 8.75753 5.34083C10.0118 5.87583 12.4862 7.54 13.4807 8.64583C13.4807 8.64583 13.7608 8.93 13.8826 9.1075C14.0725 9.3625 14.1667 9.67833 14.1667 9.99417C14.1667 10.3467 14.0603 10.675 13.859 10.9425Z" fill="#4BB7F3"/>
<line x1="-2" y1="10.5" x2="8" y2="10.5" stroke="#4BB7F3"/>
</g>
<defs>
<clipPath id="clip0_22_1489">
<rect width="20" height="20" fill="white" transform="matrix(-1 0 0 -1 20 20)"/>
</clipPath>
</defs>
</svg>
